<svg width="84" height="83" viewBox="0 0 84 83" fill="none" xmlns="http://www.w3.org/2000/svg">
<path d="M78.9306 19.8567L51.9074 23.2882C49.9788 23.5331 48.5332 25.1738 48.5332 27.1179V54.8105C48.5332 56.7431 49.9623 58.3779 51.8775 58.6363L78.9007 62.2823C81.2169 62.5948 83.2774 60.7937 83.2774 58.4565V23.6864C83.2774 21.3613 81.2372 19.5638 78.9306 19.8567Z" fill="#161616"/>
<path d="M61.9472 0.766908L3.21301 10.759C1.35743 11.0747 0 12.6826 0 14.5648V69.2221C0 71.1221 1.38243 72.7396 3.25919 73.0355L61.9934 82.2965C64.3363 82.6659 66.4552 80.855 66.4552 78.4831V66.5928C66.4552 66.0403 66.0464 65.5731 65.4988 65.4996L47.1911 63.0437C45.2745 62.7866 43.8439 61.1512 43.8439 59.2175V41.5V23.6625C43.8439 21.7812 45.2001 20.1738 47.0546 19.8571L65.5378 16.7015C66.0677 16.611 66.4552 16.1518 66.4552 15.6142V4.57269C66.4552 2.1819 64.3042 0.365937 61.9472 0.766908Z" fill="#1252D3"/>
<path d="M69.249 46.7422H66.6339L65.8959 44.3678H61.6283L60.8422 46.7422H58.3073L62.4305 35.1909H65.1579L69.249 46.7422ZM63.7782 37.838L62.2861 42.3784H65.2221L63.7782 37.838ZM70.5113 35.1909H72.9178V46.7422H70.5113V35.1909Z" fill="white"/>
<path d="M20.4069 39.8777L29.5525 30.0718H35.9907L26.2508 39.8777L36.486 53.8438H30.1138L22.7511 43.4765L20.4069 45.8868V53.8438H15.5204V30.0718H20.4069V39.8777Z" fill="white"/>
</svg>
