<svg width="116" height="26" viewBox="0 0 116 26" fill="none" xmlns="http://www.w3.org/2000/svg">
<path d="M24.4528 6.21789L16.0805 7.28104C15.483 7.35691 15.0352 7.86525 15.0352 8.46755V17.0472C15.0352 17.646 15.4779 18.1525 16.0713 18.2325L24.4436 19.3621C25.1612 19.4589 25.7995 18.9009 25.7995 18.1768V7.4044C25.7995 6.68405 25.1674 6.12714 24.4528 6.21789Z" fill="#161616"/>
<path d="M19.1924 0.300102L0.995449 3.39585C0.420557 3.49365 0 3.9918 0 4.57495V21.5088C0 22.0974 0.428303 22.5986 1.00976 22.6902L19.2067 25.5595C19.9326 25.6739 20.589 25.1129 20.589 24.378V20.6942C20.589 20.523 20.4624 20.3782 20.2927 20.3555L14.6207 19.5946C14.0269 19.5149 13.5836 19.0083 13.5836 18.4092V12.92V7.39359C13.5836 6.8107 14.0038 6.3127 14.5784 6.21461L20.3048 5.23692C20.469 5.2089 20.589 5.06661 20.589 4.90007V1.4792C20.589 0.738493 19.9226 0.175874 19.1924 0.300102Z" fill="#1252D3"/>
<path d="M21.4556 14.8281H20.6454L20.4167 14.0925H19.0946L18.851 14.8281H18.0657L19.3431 11.2493H20.1881L21.4556 14.8281ZM19.7606 12.0695L19.2984 13.4761H20.208L19.7606 12.0695ZM21.8467 11.2493H22.5923V14.8281H21.8467V11.2493Z" fill="white"/>
<path d="M6.32202 12.6731L9.15549 9.63501H11.1502L8.13258 12.6731L11.3036 17H9.32939L7.04829 13.788L6.32202 14.5348V17H4.8081V9.63501H6.32202V12.6731Z" fill="white"/>
<path d="M38.7426 11.1625L44.5298 4.95746H48.6038L42.4405 11.1625L48.9172 20H44.885L40.2259 13.4398L38.7426 14.9649V20H35.6505V4.95746H38.7426V11.1625ZM57.3301 9.11505C58.0614 9.44933 58.6673 9.99253 59.1478 10.7447C59.5865 11.4132 59.879 12.1653 60.0044 13.0428C60.0671 13.5442 60.1088 14.2964 60.0879 15.2365H52.4831C52.5249 16.3647 52.8801 17.1377 53.5277 17.5974C53.9247 17.869 54.4261 18.0152 54.9902 18.0152C55.5961 18.0152 56.0557 17.8272 56.4527 17.4929C56.6407 17.3258 56.8287 17.0542 56.975 16.7408H59.9626C59.879 17.3884 59.5238 18.057 58.918 18.7465C57.9778 19.8329 56.6407 20.3761 54.9275 20.3761C53.5068 20.3761 52.2533 19.9164 51.1878 18.9972C50.1014 18.0988 49.5582 16.5945 49.5582 14.5471C49.5582 12.625 50.0387 11.1625 51.0206 10.1179C52.0026 9.09416 53.2561 8.59274 54.8231 8.59274C55.7423 8.59274 56.578 8.75988 57.3301 9.11505ZM53.2561 11.6221C52.8801 12.04 52.6502 12.6041 52.5667 13.3353H57.0794C57.0168 12.5623 56.8078 11.9773 56.39 11.5804C55.9721 11.1834 55.4498 10.9745 54.8231 10.9745C54.1545 10.9745 53.6322 11.2043 53.2561 11.6221ZM62.8596 22.1519C63.1521 22.1728 63.4237 22.1519 63.6744 22.131C63.9251 22.0892 64.1549 22.0057 64.3221 21.8803C64.5101 21.7759 64.6564 21.5251 64.8026 21.17C64.9489 20.7939 65.0115 20.5641 64.9906 20.4805L60.8957 8.88523H64.1341L66.5576 17.0751L68.8557 8.88523H71.9478L68.1245 19.812C67.3933 21.9221 66.8083 23.2383 66.3904 23.7397C65.9517 24.2412 65.0951 24.4919 63.8207 24.4919H63.1939C63.0476 24.4919 62.8178 24.471 62.4836 24.4501V22.131L62.8596 22.1519ZM82.6377 9.512C83.369 10.1179 83.7241 11.1207 83.7241 12.5205V20H80.7574V13.2309C80.7574 12.6459 80.6738 12.2071 80.5276 11.8937C80.2351 11.3088 79.6919 11.0372 78.8771 11.0372C77.8951 11.0372 77.2266 11.455 76.8505 12.2907C76.6625 12.7294 76.5789 13.2935 76.5789 13.983V20H73.6749V8.90612H76.4745V10.5148C76.8505 9.95074 77.2057 9.55379 77.54 9.28219C78.1459 8.84345 78.898 8.61363 79.8172 8.61363C80.9663 8.61363 81.9065 8.90612 82.6377 9.512ZM95.7023 18.642C94.7622 19.812 93.3415 20.397 91.4194 20.397C89.5182 20.397 88.0975 19.812 87.1573 18.642C86.2172 17.4929 85.7367 16.0931 85.7367 14.4635C85.7367 12.8548 86.2172 11.455 87.1573 10.285C88.0975 9.11505 89.5182 8.53006 91.4194 8.53006C93.3415 8.53006 94.7622 9.11505 95.7023 10.285C96.6425 11.455 97.1021 12.8548 97.1021 14.4635C97.1021 16.0931 96.6425 17.4929 95.7023 18.642ZM93.3624 17.0333C93.822 16.4483 94.0518 15.5708 94.0518 14.4635C94.0518 13.3562 93.822 12.4787 93.3624 11.8728C92.9028 11.2879 92.2551 10.9745 91.4194 10.9745C90.5628 10.9745 89.9151 11.2879 89.4555 11.8728C88.9959 12.4787 88.7661 13.3562 88.7661 14.4635C88.7661 15.5708 88.9959 16.4483 89.4555 17.0333C89.9151 17.6392 90.5628 17.9525 91.4194 17.9525C92.2551 17.9525 92.9028 17.6392 93.3624 17.0333ZM99.5952 8.98969V5.87672H102.478V8.98969H104.296V11.058H102.478V16.9288C102.478 17.3884 102.541 17.66 102.645 17.7854C102.771 17.8899 103.126 17.9525 103.711 17.9525C103.815 17.9525 103.899 17.9525 104.003 17.9317H104.296V20.1045L102.917 20.1462C101.538 20.2089 100.598 19.9582 100.097 19.4359C99.7623 19.1016 99.5952 18.6002 99.5952 17.8899V11.058H98.0491V8.98969H99.5952ZM113.05 9.11505C113.781 9.44933 114.387 9.99253 114.868 10.7447C115.306 11.4132 115.599 12.1653 115.724 13.0428C115.787 13.5442 115.829 14.2964 115.808 15.2365H108.203C108.245 16.3647 108.6 17.1377 109.248 17.5974C109.645 17.869 110.146 18.0152 110.71 18.0152C111.316 18.0152 111.776 17.8272 112.173 17.4929C112.361 17.3258 112.549 17.0542 112.695 16.7408H115.683C115.599 17.3884 115.244 18.057 114.638 18.7465C113.698 19.8329 112.361 20.3761 110.647 20.3761C109.227 20.3761 107.973 19.9164 106.908 18.9972C105.821 18.0988 105.278 16.5945 105.278 14.5471C105.278 12.625 105.759 11.1625 106.741 10.1179C107.723 9.09416 108.976 8.59274 110.543 8.59274C111.462 8.59274 112.298 8.75988 113.05 9.11505ZM108.976 11.6221C108.6 12.04 108.37 12.6041 108.287 13.3353H112.799C112.737 12.5623 112.528 11.9773 112.11 11.5804C111.692 11.1834 111.17 10.9745 110.543 10.9745C109.874 10.9745 109.352 11.2043 108.976 11.6221Z" fill="black"/>
</svg>
